<?xml version="1.0" standalone="no"?>
<!DOCTYPE svg PUBLIC "-//W3C//DTD SVG 20010904//EN"
 "http://www.w3.org/TR/2001/REC-SVG-20010904/DTD/svg10.dtd">
<svg version="1.0" xmlns="http://www.w3.org/2000/svg"
 width="225.000000pt" height="225.000000pt" viewBox="0 0 225.000000 225.000000"
 preserveAspectRatio="xMidYMid meet">

<g transform="translate(0.000000,225.000000) scale(0.100000,-0.100000)"
fill="#000000" stroke="none">
<path d="M480 1325 l0 -35 56 0 56 0 -4 -101 c-3 -87 -6 -103 -23 -115 -22
-16 -60 -11 -86 12 -14 12 -18 11 -37 -9 -29 -30 -28 -34 11 -57 38 -24 115
-27 156 -6 43 23 51 54 51 206 l0 140 -90 0 -90 0 0 -35z"/>
<path d="M1440 1180 l0 -180 40 0 40 0 0 180 0 180 -40 0 -40 0 0 -180z"/>
<path d="M975 1260 c-47 -24 -45 -24 -45 -5 0 10 -11 15 -35 15 l-35 0 0 -95
c0 -93 -1 -96 -26 -107 -48 -22 -59 -3 -62 106 l-3 96 -39 0 -40 0 0 -94 c0
-101 12 -151 40 -166 31 -17 86 -11 114 11 l27 21 6 -21 c4 -15 13 -21 34 -21
l29 0 0 88 c0 95 13 122 56 122 37 0 44 -20 44 -117 l0 -93 40 0 40 0 0 88 c0
93 -12 153 -34 171 -26 22 -70 23 -111 1z"/>
<path d="M1184 1261 c-47 -29 -55 -89 -18 -132 13 -14 12 -18 -1 -29 -17 -14
-20 -66 -4 -75 7 -5 3 -14 -10 -26 -40 -38 -20 -80 47 -99 46 -12 50 -12 113
1 62 13 99 46 99 87 0 48 -29 65 -120 70 -68 4 -80 7 -80 22 0 15 8 18 43 18
23 -1 52 2 65 6 29 9 55 61 48 92 -6 21 -3 24 19 24 21 0 25 5 25 30 l0 30
-97 0 c-79 0 -104 -4 -129 -19z m104 -43 c16 -16 15 -53 -3 -68 -33 -27 -81
15 -64 58 9 24 47 30 67 10z m42 -228 c13 -9 12 -13 -9 -30 -28 -24 -78 -26
-109 -4 -18 13 -21 19 -11 30 13 16 106 19 129 4z"/>
<path d="M1540 1130 l0 -130 40 0 40 0 0 68 c0 63 2 71 30 97 21 20 40 29 67
29 42 1 53 10 53 44 0 19 -5 22 -45 22 -35 0 -51 -6 -80 -31 l-35 -31 0 31 c0
29 -3 31 -35 31 l-35 0 0 -130z"/>
<path d="M1739 1069 c-17 -33 3 -69 39 -69 33 0 52 16 52 45 0 29 -19 45 -52
45 -18 0 -31 -7 -39 -21z"/>
</g>
</svg>
